# xmcd
#
# Track frame offsets:
#	150
#	16719
#	34511
#	51574
#	70884
#	87308
#	102831
#	117663
#	134948
#	151263
#	169549
#	188140
#	203622
#
# Disc length: 2945 seconds
#
# Revision: 1
# Processed by: cddbd v1.5.2PL0 Copyright (c) Steve Scherf et al.
# Submitted via: audiograbber 1.83.01
#
DISCID=af0b7f0d
DTITLE=Darius Rucker - Charleston, SC 1966
DYEAR=2010
DGENRE=Country
TTITLE0=This
TTITLE1=Come Back Song
TTITLE2=Might Get Lucky
TTITLE3=Whiskey and You
TTITLE4=Southern State Of Mind
TTITLE5=Love Will Do That
TTITLE6=The Craziest Thing
TTITLE7=Thing I'd Never Do
TTITLE8=We All Fall Down
TTITLE9=I Don't Care (Feat. Brad Paisley)
TTITLE10=She's Beautiful
TTITLE11=I Got Nothin'
TTITLE12=In A Big Way
EXTD=
EXTT0=
EXTT1=
EXTT2=
EXTT3=
EXTT4=
EXTT5=
EXTT6=
EXTT7=
EXTT8=
EXTT9=
EXTT10=
EXTT11=
EXTT12=
PLAYORDER=
